<svg width="3" height="12" viewBox="0 0 3 12" fill="none" xmlns="http://www.w3.org/2000/svg">
<path d="M1.503 1.964C1.215 1.964 0.980333 1.87867 0.799 1.708C0.628333 1.52667 0.543 1.292 0.543 1.004C0.543 0.716 0.628333 0.486666 0.799 0.315999C0.980333 0.134666 1.215 0.0439997 1.503 0.0439997C1.791 0.0439997 2.02033 0.134666 2.191 0.315999C2.37233 0.486666 2.463 0.716 2.463 1.004C2.463 1.292 2.37233 1.52667 2.191 1.708C2.02033 1.87867 1.791 1.964 1.503 1.964ZM2.143 3.5L2.143 11.5H0.863L0.863 3.5H2.143Z" fill="#F8F8F8"/>
</svg>
