<svg width="20" height="20" viewBox="0 0 20 20" fill="none" xmlns="http://www.w3.org/2000/svg">
<path d="M10.0163 19C8.39887 19 6.81418 18.5631 5.42621 17.7439L5.09834 17.5473L1.68852 18.443L2.59562 15.1226L2.37704 14.784C1.47841 13.3498 1.00125 11.6921 1 10C1 5.04126 5.0437 1 10.0054 1C12.4098 1 14.6721 1.93932 16.366 3.6432C17.2048 4.47763 17.8695 5.47014 18.3217 6.56321C18.7738 7.65627 19.0043 8.82815 18.9999 10.0109C19.0218 14.9697 14.9781 19 10.0163 19ZM14.9562 12.2718C14.683 12.1408 13.3497 11.4854 13.1092 11.3871C12.8579 11.2998 12.683 11.2561 12.4972 11.5182C12.3114 11.7913 11.7978 12.4029 11.6448 12.5777C11.4918 12.7634 11.3278 12.7852 11.0546 12.6432C10.7814 12.5121 9.90706 12.2172 8.87974 11.2998C8.071 10.5789 7.53549 9.69418 7.37155 9.42112C7.21855 9.14806 7.34969 9.00607 7.49177 8.86408C7.61199 8.74393 7.76499 8.54733 7.89614 8.39442C8.02729 8.2415 8.08193 8.12136 8.16936 7.9466C8.25679 7.76092 8.21308 7.60801 8.14751 7.47694C8.08193 7.34587 7.53549 6.01335 7.31691 5.46723C7.09833 4.94296 6.86882 5.0085 6.70489 4.99757H6.1803C5.99451 4.99757 5.71036 5.06311 5.45899 5.33616C5.21856 5.60922 4.51911 6.26456 4.51911 7.59709C4.51911 8.92961 5.49178 10.2184 5.62293 10.3932C5.75408 10.5789 7.53549 13.3095 10.2459 14.4782C10.8907 14.7621 11.3934 14.926 11.7868 15.0461C12.4316 15.2536 13.0218 15.2209 13.4917 15.1553C14.0163 15.0789 15.0983 14.5 15.3169 13.8665C15.5464 13.233 15.5464 12.6978 15.4699 12.5777C15.3934 12.4575 15.2294 12.4029 14.9562 12.2718Z" stroke="#0088D0"/>
</svg>
