<svg width="20" height="20" viewBox="0 0 20 20" fill="none" xmlns="http://www.w3.org/2000/svg">
<path d="M15.2033 5.17622C15.104 5.17622 15.0087 5.13673 14.9384 5.06645C14.8681 4.99617 14.8286 4.90086 14.8286 4.80147C14.8286 4.70208 14.8681 4.60676 14.9384 4.53648C15.0087 4.4662 15.104 4.42672 15.2033 4.42672M15.2033 5.17622C15.3027 5.17622 15.398 5.13673 15.4683 5.06645C15.5386 4.99617 15.5781 4.90086 15.5781 4.80147C15.5781 4.70208 15.5386 4.60676 15.4683 4.53648C15.398 4.4662 15.3027 4.42672 15.2033 4.42672" stroke="#0088D0" stroke-linecap="round" stroke-linejoin="round"/>
<path d="M1.0015 4.85693C1.0015 3.83401 1.40782 2.85298 2.13107 2.12967C2.85433 1.40635 3.83527 1 4.85811 1H15.1434C15.6498 1 16.1513 1.09976 16.6193 1.29359C17.0872 1.48742 17.5123 1.77152 17.8704 2.12967C18.2285 2.48782 18.5126 2.913 18.7064 3.38095C18.9002 3.84889 19 4.35043 19 4.85693V15.1431C19 16.166 18.5937 17.147 17.8704 17.8703C17.1472 18.5936 16.1662 19 15.1434 19H4.85661C3.83377 19 2.85283 18.5936 2.12957 17.8703C1.40632 17.147 1 16.166 1 15.1431L1.0015 4.85693Z" stroke="#0088D0" stroke-linecap="round" stroke-linejoin="round"/>
<path d="M6.17862 10C6.17862 10.502 6.27748 10.999 6.46956 11.4628C6.66164 11.9266 6.94317 12.3479 7.29809 12.7029C7.65301 13.0578 8.07436 13.3394 8.53808 13.5315C9.0018 13.7236 9.49882 13.8225 10.0007 13.8225C10.5027 13.8225 10.9997 13.7236 11.4634 13.5315C11.9271 13.3394 12.3485 13.0578 12.7034 12.7029C13.0583 12.3479 13.3399 11.9266 13.5319 11.4628C13.724 10.999 13.8229 10.502 13.8229 10C13.8229 8.98622 13.4202 8.01397 12.7034 7.29712C11.9866 6.58027 11.0144 6.17755 10.0007 6.17755C8.98706 6.17755 8.01488 6.58027 7.29809 7.29712C6.5813 8.01397 6.17862 8.98622 6.17862 10Z" stroke="#0088D0" stroke-linecap="round" stroke-linejoin="round"/>
</svg>
