<svg width="20" height="20" viewBox="0 0 20 20" fill="none" xmlns="http://www.w3.org/2000/svg">
<path d="M14 6L14.4957 6.06523C14.5199 5.88183 14.4408 5.70009 14.2901 5.59277C14.1394 5.48544 13.9418 5.47006 13.7764 5.55279L14 6ZM5 10.5L4.77639 10.0528C4.58383 10.1491 4.47452 10.3578 4.50505 10.5709C4.53559 10.784 4.69912 10.9537 4.91097 10.992L5 10.5ZM12.8158 15L12.4883 15.3778C12.6274 15.4983 12.8213 15.5327 12.9933 15.4674C13.1653 15.4021 13.2875 15.2476 13.3115 15.0652L12.8158 15ZM8.31579 14.4H7.81579C7.81579 14.6133 7.95113 14.8031 8.15279 14.8727C8.35446 14.9422 8.57804 14.8762 8.70952 14.7082L8.31579 14.4ZM10.2485 12.742C10.4187 12.5245 10.3804 12.2103 10.163 12.0401C9.94552 11.8699 9.63126 11.9082 9.46106 12.1256L10.2485 12.742ZM13.7764 5.55279L4.77639 10.0528L5.22361 10.9472L14.2236 6.44721L13.7764 5.55279ZM4.91097 10.992L8.22676 11.592L8.40482 10.608L5.08903 10.008L4.91097 10.992ZM13.5043 5.93477L12.3201 14.9348L13.3115 15.0652L14.4957 6.06523L13.5043 5.93477ZM13.1433 14.6222L8.64325 10.7222L7.98832 11.4778L12.4883 15.3778L13.1433 14.6222ZM13.6661 5.62784L7.98188 10.7278L8.6497 11.4722L14.3339 6.37216L13.6661 5.62784ZM7.81579 11.1V14.4H8.81579V11.1H7.81579ZM8.70952 14.7082L10.2485 12.742L9.46106 12.1256L7.92206 14.0918L8.70952 14.7082ZM18.5 10C18.5 14.6944 14.6944 18.5 10 18.5V19.5C15.2467 19.5 19.5 15.2467 19.5 10H18.5ZM10 18.5C5.30558 18.5 1.5 14.6944 1.5 10H0.5C0.5 15.2467 4.75329 19.5 10 19.5V18.5ZM1.5 10C1.5 5.30558 5.30558 1.5 10 1.5V0.5C4.75329 0.5 0.5 4.75329 0.5 10H1.5ZM10 1.5C14.6944 1.5 18.5 5.30558 18.5 10H19.5C19.5 4.75329 15.2467 0.5 10 0.5V1.5Z" fill="#0088D0"/>
</svg>
