<svg width="14" height="16" viewBox="0 0 14 16" fill="none" xmlns="http://www.w3.org/2000/svg">
<path d="M7.27534 14.9103L6.98863 14.5006L6.9855 14.5029L7.27534 14.9103ZM6.72466 14.9103L7.01451 14.5029L7.01142 14.5007L6.72466 14.9103ZM11.75 6.25C11.75 8.21895 10.8412 10.0923 9.7621 11.5925C8.684 13.0914 7.47978 14.1569 6.98864 14.5007L7.56205 15.3199C8.1518 14.9072 9.43491 13.7599 10.5739 12.1765C11.7119 10.5943 12.75 8.51584 12.75 6.25H11.75ZM6.9855 14.5029C6.98455 14.5036 6.98553 14.5027 6.98859 14.5017C6.9916 14.5007 6.99554 14.5 7 14.5C7.00446 14.5 7.0084 14.5007 7.01141 14.5017C7.01447 14.5027 7.01545 14.5036 7.0145 14.5029L6.43481 15.3177C6.77645 15.5608 7.22355 15.5608 7.56519 15.3177L6.9855 14.5029ZM7.01142 14.5007C6.52037 14.1569 5.31614 13.0913 4.238 11.5925C3.15887 10.0923 2.25 8.21894 2.25 6.25H1.25C1.25 8.51585 2.28815 10.5943 3.4262 12.1765C4.56524 13.7599 5.84834 14.9071 6.4379 15.3199L7.01142 14.5007ZM2.25 6.25C2.25 4.74715 2.78884 3.56892 3.6326 2.76503C4.48008 1.9576 5.66477 1.5 7 1.5V0.5C5.43578 0.5 3.99547 1.0381 2.94281 2.04102C1.88644 3.04747 1.25 4.49425 1.25 6.25H2.25ZM7 1.5C8.33523 1.5 9.51992 1.9576 10.3674 2.76503C11.2112 3.56892 11.75 4.74715 11.75 6.25H12.75C12.75 4.49425 12.1136 3.04747 11.0572 2.04102C10.0045 1.0381 8.56422 0.5 7 0.5V1.5ZM8.29182 6.25C8.29182 6.94036 7.73217 7.5 7.04182 7.5V8.5C8.28446 8.5 9.29182 7.49264 9.29182 6.25H8.29182ZM7.04182 7.5C6.35146 7.5 5.79182 6.94036 5.79182 6.25H4.79182C4.79182 7.49264 5.79918 8.5 7.04182 8.5V7.5ZM5.79182 6.25C5.79182 5.55964 6.35146 5 7.04182 5V4C5.79918 4 4.79182 5.00736 4.79182 6.25H5.79182ZM7.04182 5C7.73217 5 8.29182 5.55964 8.29182 6.25H9.29182C9.29182 5.00736 8.28446 4 7.04182 4V5Z" fill="#0088D0"/>
</svg>
