<svg width="16" height="16" viewBox="0 0 16 16" fill="none" xmlns="http://www.w3.org/2000/svg">
<path d="M1.71221 10.9768C2.06006 10.7971 3.75755 9.89825 4.06366 9.76343C4.38368 9.64359 4.6063 9.58366 4.84284 9.94319C5.07937 10.3177 5.73333 11.1566 5.92812 11.3963C6.12292 11.6509 6.33163 11.6809 6.67947 11.4862C7.02732 11.3064 8.14044 10.9019 9.44835 9.64359C10.478 8.65489 11.1598 7.44149 11.3685 7.06699C11.5633 6.69248 11.3963 6.49774 11.2154 6.303C11.0624 6.13821 10.8676 5.86857 10.7006 5.65885C10.5336 5.44912 10.4641 5.28434 10.3527 5.04466C10.2414 4.78999 10.2971 4.58027 10.3806 4.40051C10.4641 4.22075 11.1598 2.39316 11.438 1.64415C11.7163 0.925099 12.0085 1.01498 12.2172 1H12.8851C13.1216 1 13.4834 1.08988 13.8034 1.46439C14.1095 1.83889 15 2.73771 15 4.56529C15 6.39288 13.7617 8.16055 13.5947 8.40023C13.4277 8.65489 11.1598 12.3999 7.70911 14.0028C6.88818 14.3923 6.24814 14.617 5.74724 14.7818C4.92632 15.0664 4.17497 15.0215 3.57667 14.9316C2.9088 14.8267 1.53133 14.0328 1.25305 13.1639C0.960854 12.2951 0.960853 11.5611 1.05825 11.3963C1.15565 11.2315 1.36436 11.1566 1.71221 10.9768Z" stroke="#0088D0"/>
</svg>
